{
    "asset" : {
        "generator" : "Khronos glTF Blender I/O v1.2.75",
        "version" : "2.0"
    },
    "scene" : 0,
    "scenes" : [
        {
            "name" : "Scene",
            "nodes" : [
                3
            ]
        }
    ],
    "nodes" : [
        {
            "name" : "01",
            "translation" : [
                0,
                100.89263916015625,
                0
            ]
        },
        {
            "children" : [
                0
            ],
            "name" : "00",
            "rotation" : [
                -0.7071068286895752,
                0,
                0,
                0.7071068286895752
            ]
        },
        {
            "mesh" : 0,
            "name" : "MRI_Room",
            "skin" : 0
        },
        {
            "children" : [
                2,
                1
            ],
            "name" : "Armature",
            "rotation" : [
                0.7071068286895752,
                0,
                0,
                0.7071067094802856
            ],
            "scale" : [
                0.009999999776482582,
                0.009999999776482582,
                0.009999999776482582
            ]
        }
    ],
    "animations" : [
        {
            "channels" : [
                {
                    "sampler" : 0,
                    "target" : {
                        "node" : 1,
                        "path" : "translation"
                    }
                },
                {
                    "sampler" : 1,
                    "target" : {
                        "node" : 1,
                        "path" : "rotation"
                    }
                },
                {
                    "sampler" : 2,
                    "target" : {
                        "node" : 1,
                        "path" : "scale"
                    }
                },
                {
                    "sampler" : 3,
                    "target" : {
                        "node" : 0,
                        "path" : "translation"
                    }
                },
                {
                    "sampler" : 4,
                    "target" : {
                        "node" : 0,
                        "path" : "rotation"
                    }
                },
                {
                    "sampler" : 5,
                    "target" : {
                        "node" : 0,
                        "path" : "scale"
                    }
                }
            ],
            "name" : "Armature|CINEMA_4D____|Layer0",
            "samplers" : [
                {
                    "input" : 19,
                    "interpolation" : "LINEAR",
                    "output" : 20
                },
                {
                    "input" : 19,
                    "interpolation" : "LINEAR",
                    "output" : 21
                },
                {
                    "input" : 19,
                    "interpolation" : "LINEAR",
                    "output" : 22
                },
                {
                    "input" : 19,
                    "interpolation" : "LINEAR",
                    "output" : 23
                },
                {
                    "input" : 19,
                    "interpolation" : "LINEAR",
                    "output" : 24
                },
                {
                    "input" : 19,
                    "interpolation" : "LINEAR",
                    "output" : 25
                }
            ]
        }
    ],
    "materials" : [
        {
            "doubleSided" : true,
            "emissiveFactor" : [
                0,
                0,
                0
            ],
            "name" : "Mat.14",
            "pbrMetallicRoughness" : {
                "baseColorFactor" : [
                    0.800000011920929,
                    0.800000011920929,
                    0.800000011920929,
                    1
                ],
                "metallicFactor" : 0,
                "roughnessFactor" : 0.4343145787715912
            }
        },
        {
            "doubleSided" : true,
            "emissiveFactor" : [
                0,
                0,
                0
            ],
            "name" : "Mat",
            "pbrMetallicRoughness" : {
                "baseColorFactor" : [
                    0,
                    0,
                    0,
                    1
                ],
                "metallicFactor" : 0.05999999865889549,
                "roughnessFactor" : 0
            }
        },
        {
            "doubleSided" : true,
            "emissiveFactor" : [
                0,
                0,
                0
            ],
            "name" : "Mat.1",
            "pbrMetallicRoughness" : {
                "baseColorFactor" : [
                    0,
                    0.30666667222976685,
                    0.800000011920929,
                    1
                ],
                "metallicFactor" : 0,
                "roughnessFactor" : 0.4343145787715912
            }
        }
    ],
    "meshes" : [
        {
            "name" : "\u30e1\u30c3\u30b7\u30e5",
            "primitives" : [
                {
                    "attributes" : {
                        "POSITION" : 0,
                        "NORMAL" : 1,
                        "TEXCOORD_0" : 2,
                        "JOINTS_0" : 3,
                        "WEIGHTS_0" : 4
                    },
                    "indices" : 5,
                    "material" : 0
                },
                {
                    "attributes" : {
                        "POSITION" : 6,
                        "NORMAL" : 7,
                        "TEXCOORD_0" : 8,
                        "JOINTS_0" : 9,
                        "WEIGHTS_0" : 10
                    },
                    "indices" : 11,
                    "material" : 1
                },
                {
                    "attributes" : {
                        "POSITION" : 12,
                        "NORMAL" : 13,
                        "TEXCOORD_0" : 14,
                        "JOINTS_0" : 15,
                        "WEIGHTS_0" : 16
                    },
                    "indices" : 17,
                    "material" : 2
                }
            ]
        }
    ],
    "skins" : [
        {
            "inverseBindMatrices" : 18,
            "joints" : [
                1,
                0
            ],
            "name" : "Armature"
        }
    ],
    "accessors" : [
        {
            "bufferView" : 0,
            "componentType" : 5126,
            "count" : 735,
            "max" : [
                1.7365620136260986,
                1.9947737455368042,
                0.8952582478523254
            ],
            "min" : [
                -1.66146981716156,
                -1.548363002257247e-07,
                -0.8952578902244568
            ],
            "type" : "VEC3"
        },
        {
            "bufferView" : 1,
            "componentType" : 5126,
            "count" : 735,
            "type" : "VEC3"
        },
        {
            "bufferView" : 2,
            "componentType" : 5126,
            "count" : 735,
            "type" : "VEC2"
        },
        {
            "bufferView" : 3,
            "componentType" : 5123,
            "count" : 735,
            "type" : "VEC4"
        },
        {
            "bufferView" : 4,
            "componentType" : 5126,
            "count" : 735,
            "type" : "VEC4"
        },
        {
            "bufferView" : 5,
            "componentType" : 5123,
            "count" : 2046,
            "type" : "SCALAR"
        },
        {
            "bufferView" : 6,
            "componentType" : 5126,
            "count" : 24,
            "max" : [
                -0.5385301113128662,
                1.7666399478912354,
                0.6658676862716675
            ],
            "min" : [
                -0.5385301113128662,
                0.9805096387863159,
                -0.6658673286437988
            ],
            "type" : "VEC3"
        },
        {
            "bufferView" : 7,
            "componentType" : 5126,
            "count" : 24,
            "type" : "VEC3"
        },
        {
            "bufferView" : 8,
            "componentType" : 5126,
            "count" : 24,
            "type" : "VEC2"
        },
        {
            "bufferView" : 9,
            "componentType" : 5123,
            "count" : 24,
            "type" : "VEC4"
        },
        {
            "bufferView" : 10,
            "componentType" : 5126,
            "count" : 24,
            "type" : "VEC4"
        },
        {
            "bufferView" : 11,
            "componentType" : 5123,
            "count" : 54,
            "type" : "SCALAR"
        },
        {
            "bufferView" : 12,
            "componentType" : 5126,
            "count" : 8316,
            "max" : [
                1.2623831033706665,
                1.161913275718689,
                0.23448015749454498
            ],
            "min" : [
                -0.4417881369590759,
                0.9053852558135986,
                -0.23447982966899872
            ],
            "type" : "VEC3"
        },
        {
            "bufferView" : 13,
            "componentType" : 5126,
            "count" : 8316,
            "type" : "VEC3"
        },
        {
            "bufferView" : 14,
            "componentType" : 5126,
            "count" : 8316,
            "type" : "VEC2"
        },
        {
            "bufferView" : 15,
            "componentType" : 5123,
            "count" : 8316,
            "type" : "VEC4"
        },
        {
            "bufferView" : 16,
            "componentType" : 5126,
            "count" : 8316,
            "type" : "VEC4"
        },
        {
            "bufferView" : 17,
            "componentType" : 5123,
            "count" : 13773,
            "type" : "SCALAR"
        },
        {
            "bufferView" : 18,
            "componentType" : 5126,
            "count" : 2,
            "type" : "MAT4"
        },
        {
            "bufferView" : 19,
            "componentType" : 5126,
            "count" : 300,
            "max" : [
                10
            ],
            "min" : [
                0.03333333333333333
            ],
            "type" : "SCALAR"
        },
        {
            "bufferView" : 20,
            "componentType" : 5126,
            "count" : 300,
            "type" : "VEC3"
        },
        {
            "bufferView" : 21,
            "componentType" : 5126,
            "count" : 300,
            "type" : "VEC4"
        },
        {
            "bufferView" : 22,
            "componentType" : 5126,
            "count" : 300,
            "type" : "VEC3"
        },
        {
            "bufferView" : 23,
            "componentType" : 5126,
            "count" : 300,
            "type" : "VEC3"
        },
        {
            "bufferView" : 24,
            "componentType" : 5126,
            "count" : 300,
            "type" : "VEC4"
        },
        {
            "bufferView" : 25,
            "componentType" : 5126,
            "count" : 300,
            "type" : "VEC3"
        }
    ],
    "bufferViews" : [
        {
            "buffer" : 0,
            "byteLength" : 8820,
            "byteOffset" : 0
        },
        {
            "buffer" : 0,
            "byteLength" : 8820,
            "byteOffset" : 8820
        },
        {
            "buffer" : 0,
            "byteLength" : 5880,
            "byteOffset" : 17640
        },
        {
            "buffer" : 0,
            "byteLength" : 5880,
            "byteOffset" : 23520
        },
        {
            "buffer" : 0,
            "byteLength" : 11760,
            "byteOffset" : 29400
        },
        {
            "buffer" : 0,
            "byteLength" : 4092,
            "byteOffset" : 41160
        },
        {
            "buffer" : 0,
            "byteLength" : 288,
            "byteOffset" : 45252
        },
        {
            "buffer" : 0,
            "byteLength" : 288,
            "byteOffset" : 45540
        },
        {
            "buffer" : 0,
            "byteLength" : 192,
            "byteOffset" : 45828
        },
        {
            "buffer" : 0,
            "byteLength" : 192,
            "byteOffset" : 46020
        },
        {
            "buffer" : 0,
            "byteLength" : 384,
            "byteOffset" : 46212
        },
        {
            "buffer" : 0,
            "byteLength" : 108,
            "byteOffset" : 46596
        },
        {
            "buffer" : 0,
            "byteLength" : 99792,
            "byteOffset" : 46704
        },
        {
            "buffer" : 0,
            "byteLength" : 99792,
            "byteOffset" : 146496
        },
        {
            "buffer" : 0,
            "byteLength" : 66528,
            "byteOffset" : 246288
        },
        {
            "buffer" : 0,
            "byteLength" : 66528,
            "byteOffset" : 312816
        },
        {
            "buffer" : 0,
            "byteLength" : 133056,
            "byteOffset" : 379344
        },
        {
            "buffer" : 0,
            "byteLength" : 27546,
            "byteOffset" : 512400
        },
        {
            "buffer" : 0,
            "byteLength" : 128,
            "byteOffset" : 539948
        },
        {
            "buffer" : 0,
            "byteLength" : 1200,
            "byteOffset" : 540076
        },
        {
            "buffer" : 0,
            "byteLength" : 3600,
            "byteOffset" : 541276
        },
        {
            "buffer" : 0,
            "byteLength" : 4800,
            "byteOffset" : 544876
        },
        {
            "buffer" : 0,
            "byteLength" : 3600,
            "byteOffset" : 549676
        },
        {
            "buffer" : 0,
            "byteLength" : 3600,
            "byteOffset" : 553276
        },
        {
            "buffer" : 0,
            "byteLength" : 4800,
            "byteOffset" : 556876
        },
        {
            "buffer" : 0,
            "byteLength" : 3600,
            "byteOffset" : 561676
        }
    ],
    "buffers" : [
        {
            "byteLength" : 565276,
            "uri" : "data:application/octet-stream;base64,"
        }
    ]
}
